<mxfile host="app.diagrams.net" agent="Mozilla/5.0 (X11; Ubuntu; Linux x86_64; rv:134.0) Gecko/20100101 Firefox/134.0" version="26.0.10">
  <diagram id="C5RBs43oDa-KdzZeNtuy" name="Page-1">
    <mxGraphModel dx="6107" dy="3170" grid="1" gridSize="10" guides="1" tooltips="1" connect="1" arrows="1" fold="1" page="1" pageScale="1" pageWidth="827" pageHeight="1169" math="0" shadow="0">
      <root>
        <mxCell id="WIyWlLk6GJQsqaUBKTNV-0" />
        <mxCell id="WIyWlLk6GJQsqaUBKTNV-1" parent="WIyWlLk6GJQsqaUBKTNV-0" />
        <mxCell id="63EsvMtUPEDaX-puUmTT-16" value="" style="edgeStyle=orthogonalEdgeStyle;rounded=0;orthogonalLoop=1;jettySize=auto;html=1;" edge="1" parent="WIyWlLk6GJQsqaUBKTNV-1" source="63EsvMtUPEDaX-puUmTT-0" target="63EsvMtUPEDaX-puUmTT-15">
          <mxGeometry relative="1" as="geometry" />
        </mxCell>
        <mxCell id="63EsvMtUPEDaX-puUmTT-0" value="START" style="ellipse;whiteSpace=wrap;html=1;" vertex="1" parent="WIyWlLk6GJQsqaUBKTNV-1">
          <mxGeometry x="340" width="120" height="80" as="geometry" />
        </mxCell>
        <mxCell id="63EsvMtUPEDaX-puUmTT-4" value="" style="edgeStyle=orthogonalEdgeStyle;rounded=0;orthogonalLoop=1;jettySize=auto;html=1;" edge="1" parent="WIyWlLk6GJQsqaUBKTNV-1" source="63EsvMtUPEDaX-puUmTT-1" target="63EsvMtUPEDaX-puUmTT-3">
          <mxGeometry relative="1" as="geometry" />
        </mxCell>
        <mxCell id="63EsvMtUPEDaX-puUmTT-1" value="i = 1" style="rounded=1;whiteSpace=wrap;html=1;" vertex="1" parent="WIyWlLk6GJQsqaUBKTNV-1">
          <mxGeometry x="340" y="240" width="120" height="60" as="geometry" />
        </mxCell>
        <mxCell id="63EsvMtUPEDaX-puUmTT-6" value="" style="edgeStyle=orthogonalEdgeStyle;rounded=0;orthogonalLoop=1;jettySize=auto;html=1;" edge="1" parent="WIyWlLk6GJQsqaUBKTNV-1" source="63EsvMtUPEDaX-puUmTT-3" target="63EsvMtUPEDaX-puUmTT-5">
          <mxGeometry relative="1" as="geometry" />
        </mxCell>
        <mxCell id="63EsvMtUPEDaX-puUmTT-3" value="Media = 0" style="rounded=1;whiteSpace=wrap;html=1;" vertex="1" parent="WIyWlLk6GJQsqaUBKTNV-1">
          <mxGeometry x="340" y="380" width="120" height="60" as="geometry" />
        </mxCell>
        <mxCell id="63EsvMtUPEDaX-puUmTT-8" value="" style="edgeStyle=orthogonalEdgeStyle;rounded=0;orthogonalLoop=1;jettySize=auto;html=1;" edge="1" parent="WIyWlLk6GJQsqaUBKTNV-1" source="63EsvMtUPEDaX-puUmTT-5" target="63EsvMtUPEDaX-puUmTT-7">
          <mxGeometry relative="1" as="geometry" />
        </mxCell>
        <mxCell id="63EsvMtUPEDaX-puUmTT-5" value="Temp_max = 0&lt;br&gt;Temp_min = 10000" style="rounded=1;whiteSpace=wrap;html=1;" vertex="1" parent="WIyWlLk6GJQsqaUBKTNV-1">
          <mxGeometry x="340" y="520" width="120" height="60" as="geometry" />
        </mxCell>
        <mxCell id="63EsvMtUPEDaX-puUmTT-10" value="" style="edgeStyle=orthogonalEdgeStyle;rounded=0;orthogonalLoop=1;jettySize=auto;html=1;" edge="1" parent="WIyWlLk6GJQsqaUBKTNV-1" source="63EsvMtUPEDaX-puUmTT-7" target="63EsvMtUPEDaX-puUmTT-9">
          <mxGeometry relative="1" as="geometry" />
        </mxCell>
        <mxCell id="63EsvMtUPEDaX-puUmTT-7" value="&amp;nbsp;g_max = 1&lt;br&gt;g_min = 1" style="rounded=1;whiteSpace=wrap;html=1;" vertex="1" parent="WIyWlLk6GJQsqaUBKTNV-1">
          <mxGeometry x="340" y="660" width="120" height="60" as="geometry" />
        </mxCell>
        <mxCell id="63EsvMtUPEDaX-puUmTT-12" value="" style="edgeStyle=orthogonalEdgeStyle;rounded=0;orthogonalLoop=1;jettySize=auto;html=1;" edge="1" parent="WIyWlLk6GJQsqaUBKTNV-1" source="63EsvMtUPEDaX-puUmTT-9" target="63EsvMtUPEDaX-puUmTT-11">
          <mxGeometry relative="1" as="geometry" />
        </mxCell>
        <mxCell id="63EsvMtUPEDaX-puUmTT-62" style="edgeStyle=orthogonalEdgeStyle;rounded=0;orthogonalLoop=1;jettySize=auto;html=1;exitX=1;exitY=0.5;exitDx=0;exitDy=0;" edge="1" parent="WIyWlLk6GJQsqaUBKTNV-1" source="63EsvMtUPEDaX-puUmTT-9">
          <mxGeometry relative="1" as="geometry">
            <mxPoint x="470" y="3442" as="targetPoint" />
            <Array as="points">
              <mxPoint x="910" y="830" />
              <mxPoint x="910" y="3410" />
              <mxPoint x="470" y="3410" />
            </Array>
          </mxGeometry>
        </mxCell>
        <mxCell id="63EsvMtUPEDaX-puUmTT-9" value="i &amp;lt;= 7" style="rhombus;whiteSpace=wrap;html=1;rounded=1;" vertex="1" parent="WIyWlLk6GJQsqaUBKTNV-1">
          <mxGeometry x="360" y="790" width="80" height="80" as="geometry" />
        </mxCell>
        <mxCell id="63EsvMtUPEDaX-puUmTT-14" value="" style="edgeStyle=orthogonalEdgeStyle;rounded=0;orthogonalLoop=1;jettySize=auto;html=1;" edge="1" parent="WIyWlLk6GJQsqaUBKTNV-1" source="63EsvMtUPEDaX-puUmTT-11" target="63EsvMtUPEDaX-puUmTT-13">
          <mxGeometry relative="1" as="geometry" />
        </mxCell>
        <mxCell id="63EsvMtUPEDaX-puUmTT-11" value="Read t" style="shape=parallelogram;perimeter=parallelogramPerimeter;whiteSpace=wrap;html=1;fixedSize=1;rounded=1;" vertex="1" parent="WIyWlLk6GJQsqaUBKTNV-1">
          <mxGeometry x="340" y="960" width="120" height="60" as="geometry" />
        </mxCell>
        <mxCell id="63EsvMtUPEDaX-puUmTT-19" value="" style="edgeStyle=orthogonalEdgeStyle;rounded=0;orthogonalLoop=1;jettySize=auto;html=1;" edge="1" parent="WIyWlLk6GJQsqaUBKTNV-1" source="63EsvMtUPEDaX-puUmTT-13" target="63EsvMtUPEDaX-puUmTT-18">
          <mxGeometry relative="1" as="geometry" />
        </mxCell>
        <mxCell id="63EsvMtUPEDaX-puUmTT-13" value="Media += t" style="whiteSpace=wrap;html=1;rounded=1;" vertex="1" parent="WIyWlLk6GJQsqaUBKTNV-1">
          <mxGeometry x="340" y="1100" width="120" height="60" as="geometry" />
        </mxCell>
        <mxCell id="63EsvMtUPEDaX-puUmTT-17" value="" style="edgeStyle=orthogonalEdgeStyle;rounded=0;orthogonalLoop=1;jettySize=auto;html=1;" edge="1" parent="WIyWlLk6GJQsqaUBKTNV-1" source="63EsvMtUPEDaX-puUmTT-15" target="63EsvMtUPEDaX-puUmTT-1">
          <mxGeometry relative="1" as="geometry" />
        </mxCell>
        <mxCell id="63EsvMtUPEDaX-puUmTT-15" value="Temp_norma = 0" style="rounded=1;whiteSpace=wrap;html=1;" vertex="1" parent="WIyWlLk6GJQsqaUBKTNV-1">
          <mxGeometry x="340" y="120" width="120" height="60" as="geometry" />
        </mxCell>
        <mxCell id="63EsvMtUPEDaX-puUmTT-21" value="" style="edgeStyle=orthogonalEdgeStyle;rounded=0;orthogonalLoop=1;jettySize=auto;html=1;" edge="1" parent="WIyWlLk6GJQsqaUBKTNV-1" source="63EsvMtUPEDaX-puUmTT-18" target="63EsvMtUPEDaX-puUmTT-20">
          <mxGeometry relative="1" as="geometry" />
        </mxCell>
        <mxCell id="63EsvMtUPEDaX-puUmTT-23" value="" style="edgeStyle=orthogonalEdgeStyle;rounded=0;orthogonalLoop=1;jettySize=auto;html=1;" edge="1" parent="WIyWlLk6GJQsqaUBKTNV-1" source="63EsvMtUPEDaX-puUmTT-18" target="63EsvMtUPEDaX-puUmTT-22">
          <mxGeometry relative="1" as="geometry" />
        </mxCell>
        <mxCell id="63EsvMtUPEDaX-puUmTT-18" value="t &amp;gt;= 10 and t &amp;lt;= 30" style="rhombus;whiteSpace=wrap;html=1;rounded=1;" vertex="1" parent="WIyWlLk6GJQsqaUBKTNV-1">
          <mxGeometry x="300" y="1230" width="200" height="80" as="geometry" />
        </mxCell>
        <mxCell id="63EsvMtUPEDaX-puUmTT-31" style="edgeStyle=orthogonalEdgeStyle;rounded=0;orthogonalLoop=1;jettySize=auto;html=1;exitX=0.5;exitY=1;exitDx=0;exitDy=0;entryX=1;entryY=0.5;entryDx=0;entryDy=0;" edge="1" parent="WIyWlLk6GJQsqaUBKTNV-1" source="63EsvMtUPEDaX-puUmTT-20" target="63EsvMtUPEDaX-puUmTT-29">
          <mxGeometry relative="1" as="geometry" />
        </mxCell>
        <mxCell id="63EsvMtUPEDaX-puUmTT-20" value="temp_norma += 1" style="whiteSpace=wrap;html=1;rounded=1;" vertex="1" parent="WIyWlLk6GJQsqaUBKTNV-1">
          <mxGeometry x="620" y="1350" width="120" height="60" as="geometry" />
        </mxCell>
        <mxCell id="63EsvMtUPEDaX-puUmTT-25" style="edgeStyle=orthogonalEdgeStyle;rounded=0;orthogonalLoop=1;jettySize=auto;html=1;exitX=1;exitY=0.5;exitDx=0;exitDy=0;entryX=0.5;entryY=0;entryDx=0;entryDy=0;" edge="1" parent="WIyWlLk6GJQsqaUBKTNV-1" source="63EsvMtUPEDaX-puUmTT-22" target="63EsvMtUPEDaX-puUmTT-24">
          <mxGeometry relative="1" as="geometry" />
        </mxCell>
        <mxCell id="63EsvMtUPEDaX-puUmTT-28" style="edgeStyle=orthogonalEdgeStyle;rounded=0;orthogonalLoop=1;jettySize=auto;html=1;exitX=0;exitY=0.5;exitDx=0;exitDy=0;entryX=0;entryY=0.5;entryDx=0;entryDy=0;" edge="1" parent="WIyWlLk6GJQsqaUBKTNV-1" source="63EsvMtUPEDaX-puUmTT-22" target="63EsvMtUPEDaX-puUmTT-26">
          <mxGeometry relative="1" as="geometry">
            <Array as="points">
              <mxPoint x="-120" y="1380" />
              <mxPoint x="-120" y="1670" />
            </Array>
          </mxGeometry>
        </mxCell>
        <mxCell id="63EsvMtUPEDaX-puUmTT-22" value="t &amp;gt; 35 or t &amp;lt; 5" style="rhombus;whiteSpace=wrap;html=1;rounded=1;" vertex="1" parent="WIyWlLk6GJQsqaUBKTNV-1">
          <mxGeometry x="-30" y="1340" width="200" height="80" as="geometry" />
        </mxCell>
        <mxCell id="63EsvMtUPEDaX-puUmTT-27" style="edgeStyle=orthogonalEdgeStyle;rounded=0;orthogonalLoop=1;jettySize=auto;html=1;exitX=0.5;exitY=1;exitDx=0;exitDy=0;entryX=1;entryY=0.5;entryDx=0;entryDy=0;" edge="1" parent="WIyWlLk6GJQsqaUBKTNV-1" source="63EsvMtUPEDaX-puUmTT-24" target="63EsvMtUPEDaX-puUmTT-26">
          <mxGeometry relative="1" as="geometry" />
        </mxCell>
        <mxCell id="63EsvMtUPEDaX-puUmTT-24" value="Write &quot;AT&quot;" style="shape=parallelogram;perimeter=parallelogramPerimeter;whiteSpace=wrap;html=1;fixedSize=1;" vertex="1" parent="WIyWlLk6GJQsqaUBKTNV-1">
          <mxGeometry x="180" y="1470" width="120" height="60" as="geometry" />
        </mxCell>
        <mxCell id="63EsvMtUPEDaX-puUmTT-30" style="edgeStyle=orthogonalEdgeStyle;rounded=0;orthogonalLoop=1;jettySize=auto;html=1;exitX=0.5;exitY=1;exitDx=0;exitDy=0;entryX=0;entryY=0.5;entryDx=0;entryDy=0;" edge="1" parent="WIyWlLk6GJQsqaUBKTNV-1" source="63EsvMtUPEDaX-puUmTT-26" target="63EsvMtUPEDaX-puUmTT-29">
          <mxGeometry relative="1" as="geometry" />
        </mxCell>
        <mxCell id="63EsvMtUPEDaX-puUmTT-26" value="" style="ellipse;whiteSpace=wrap;html=1;aspect=fixed;" vertex="1" parent="WIyWlLk6GJQsqaUBKTNV-1">
          <mxGeometry x="50" y="1650" width="40" height="40" as="geometry" />
        </mxCell>
        <mxCell id="63EsvMtUPEDaX-puUmTT-33" value="" style="edgeStyle=orthogonalEdgeStyle;rounded=0;orthogonalLoop=1;jettySize=auto;html=1;" edge="1" parent="WIyWlLk6GJQsqaUBKTNV-1" source="63EsvMtUPEDaX-puUmTT-29" target="63EsvMtUPEDaX-puUmTT-32">
          <mxGeometry relative="1" as="geometry" />
        </mxCell>
        <mxCell id="63EsvMtUPEDaX-puUmTT-29" value="" style="ellipse;whiteSpace=wrap;html=1;aspect=fixed;" vertex="1" parent="WIyWlLk6GJQsqaUBKTNV-1">
          <mxGeometry x="380" y="1754" width="40" height="40" as="geometry" />
        </mxCell>
        <mxCell id="63EsvMtUPEDaX-puUmTT-35" value="" style="edgeStyle=orthogonalEdgeStyle;rounded=0;orthogonalLoop=1;jettySize=auto;html=1;" edge="1" parent="WIyWlLk6GJQsqaUBKTNV-1" source="63EsvMtUPEDaX-puUmTT-32" target="63EsvMtUPEDaX-puUmTT-34">
          <mxGeometry relative="1" as="geometry" />
        </mxCell>
        <mxCell id="63EsvMtUPEDaX-puUmTT-40" style="edgeStyle=orthogonalEdgeStyle;rounded=0;orthogonalLoop=1;jettySize=auto;html=1;exitX=0;exitY=0.5;exitDx=0;exitDy=0;entryX=0;entryY=0.5;entryDx=0;entryDy=0;" edge="1" parent="WIyWlLk6GJQsqaUBKTNV-1" source="63EsvMtUPEDaX-puUmTT-32" target="63EsvMtUPEDaX-puUmTT-38">
          <mxGeometry relative="1" as="geometry">
            <Array as="points">
              <mxPoint x="200" y="1894" />
              <mxPoint x="200" y="2250" />
            </Array>
          </mxGeometry>
        </mxCell>
        <mxCell id="63EsvMtUPEDaX-puUmTT-32" value="i == 1" style="rhombus;whiteSpace=wrap;html=1;" vertex="1" parent="WIyWlLk6GJQsqaUBKTNV-1">
          <mxGeometry x="360" y="1854" width="80" height="80" as="geometry" />
        </mxCell>
        <mxCell id="63EsvMtUPEDaX-puUmTT-37" value="" style="edgeStyle=orthogonalEdgeStyle;rounded=0;orthogonalLoop=1;jettySize=auto;html=1;" edge="1" parent="WIyWlLk6GJQsqaUBKTNV-1" source="63EsvMtUPEDaX-puUmTT-34" target="63EsvMtUPEDaX-puUmTT-36">
          <mxGeometry relative="1" as="geometry" />
        </mxCell>
        <mxCell id="63EsvMtUPEDaX-puUmTT-34" value="t_max = t" style="whiteSpace=wrap;html=1;" vertex="1" parent="WIyWlLk6GJQsqaUBKTNV-1">
          <mxGeometry x="620" y="1990" width="120" height="60" as="geometry" />
        </mxCell>
        <mxCell id="63EsvMtUPEDaX-puUmTT-39" style="edgeStyle=orthogonalEdgeStyle;rounded=0;orthogonalLoop=1;jettySize=auto;html=1;exitX=0.5;exitY=1;exitDx=0;exitDy=0;entryX=1;entryY=0.5;entryDx=0;entryDy=0;" edge="1" parent="WIyWlLk6GJQsqaUBKTNV-1" source="63EsvMtUPEDaX-puUmTT-36" target="63EsvMtUPEDaX-puUmTT-38">
          <mxGeometry relative="1" as="geometry" />
        </mxCell>
        <mxCell id="63EsvMtUPEDaX-puUmTT-36" value="t_min = t" style="whiteSpace=wrap;html=1;" vertex="1" parent="WIyWlLk6GJQsqaUBKTNV-1">
          <mxGeometry x="620" y="2130" width="120" height="60" as="geometry" />
        </mxCell>
        <mxCell id="63EsvMtUPEDaX-puUmTT-42" value="" style="edgeStyle=orthogonalEdgeStyle;rounded=0;orthogonalLoop=1;jettySize=auto;html=1;" edge="1" parent="WIyWlLk6GJQsqaUBKTNV-1" source="63EsvMtUPEDaX-puUmTT-38" target="63EsvMtUPEDaX-puUmTT-41">
          <mxGeometry relative="1" as="geometry" />
        </mxCell>
        <mxCell id="63EsvMtUPEDaX-puUmTT-38" value="" style="ellipse;whiteSpace=wrap;html=1;aspect=fixed;" vertex="1" parent="WIyWlLk6GJQsqaUBKTNV-1">
          <mxGeometry x="380" y="2230" width="40" height="40" as="geometry" />
        </mxCell>
        <mxCell id="63EsvMtUPEDaX-puUmTT-44" value="" style="edgeStyle=orthogonalEdgeStyle;rounded=0;orthogonalLoop=1;jettySize=auto;html=1;" edge="1" parent="WIyWlLk6GJQsqaUBKTNV-1" source="63EsvMtUPEDaX-puUmTT-41" target="63EsvMtUPEDaX-puUmTT-43">
          <mxGeometry relative="1" as="geometry" />
        </mxCell>
        <mxCell id="63EsvMtUPEDaX-puUmTT-49" style="edgeStyle=orthogonalEdgeStyle;rounded=0;orthogonalLoop=1;jettySize=auto;html=1;entryX=0;entryY=0.5;entryDx=0;entryDy=0;" edge="1" parent="WIyWlLk6GJQsqaUBKTNV-1" source="63EsvMtUPEDaX-puUmTT-41" target="63EsvMtUPEDaX-puUmTT-47">
          <mxGeometry relative="1" as="geometry">
            <Array as="points">
              <mxPoint x="200" y="2370" />
              <mxPoint x="200" y="2680" />
            </Array>
          </mxGeometry>
        </mxCell>
        <mxCell id="63EsvMtUPEDaX-puUmTT-41" value="t &amp;gt; t_max" style="rhombus;whiteSpace=wrap;html=1;" vertex="1" parent="WIyWlLk6GJQsqaUBKTNV-1">
          <mxGeometry x="360" y="2330" width="80" height="80" as="geometry" />
        </mxCell>
        <mxCell id="63EsvMtUPEDaX-puUmTT-46" value="" style="edgeStyle=orthogonalEdgeStyle;rounded=0;orthogonalLoop=1;jettySize=auto;html=1;" edge="1" parent="WIyWlLk6GJQsqaUBKTNV-1" source="63EsvMtUPEDaX-puUmTT-43" target="63EsvMtUPEDaX-puUmTT-45">
          <mxGeometry relative="1" as="geometry" />
        </mxCell>
        <mxCell id="63EsvMtUPEDaX-puUmTT-43" value="t_max = t" style="whiteSpace=wrap;html=1;" vertex="1" parent="WIyWlLk6GJQsqaUBKTNV-1">
          <mxGeometry x="620" y="2420" width="120" height="60" as="geometry" />
        </mxCell>
        <mxCell id="63EsvMtUPEDaX-puUmTT-48" style="edgeStyle=orthogonalEdgeStyle;rounded=0;orthogonalLoop=1;jettySize=auto;html=1;exitX=0.5;exitY=1;exitDx=0;exitDy=0;entryX=1;entryY=0.5;entryDx=0;entryDy=0;" edge="1" parent="WIyWlLk6GJQsqaUBKTNV-1" source="63EsvMtUPEDaX-puUmTT-45" target="63EsvMtUPEDaX-puUmTT-47">
          <mxGeometry relative="1" as="geometry" />
        </mxCell>
        <mxCell id="63EsvMtUPEDaX-puUmTT-45" value="g_max = i" style="whiteSpace=wrap;html=1;" vertex="1" parent="WIyWlLk6GJQsqaUBKTNV-1">
          <mxGeometry x="620" y="2580" width="120" height="60" as="geometry" />
        </mxCell>
        <mxCell id="63EsvMtUPEDaX-puUmTT-58" value="" style="edgeStyle=orthogonalEdgeStyle;rounded=0;orthogonalLoop=1;jettySize=auto;html=1;" edge="1" parent="WIyWlLk6GJQsqaUBKTNV-1" source="63EsvMtUPEDaX-puUmTT-47" target="63EsvMtUPEDaX-puUmTT-52">
          <mxGeometry relative="1" as="geometry" />
        </mxCell>
        <mxCell id="63EsvMtUPEDaX-puUmTT-47" value="" style="ellipse;whiteSpace=wrap;html=1;aspect=fixed;" vertex="1" parent="WIyWlLk6GJQsqaUBKTNV-1">
          <mxGeometry x="380" y="2660" width="40" height="40" as="geometry" />
        </mxCell>
        <mxCell id="63EsvMtUPEDaX-puUmTT-50" value="" style="edgeStyle=orthogonalEdgeStyle;rounded=0;orthogonalLoop=1;jettySize=auto;html=1;" edge="1" parent="WIyWlLk6GJQsqaUBKTNV-1" source="63EsvMtUPEDaX-puUmTT-52" target="63EsvMtUPEDaX-puUmTT-54">
          <mxGeometry relative="1" as="geometry" />
        </mxCell>
        <mxCell id="63EsvMtUPEDaX-puUmTT-51" style="edgeStyle=orthogonalEdgeStyle;rounded=0;orthogonalLoop=1;jettySize=auto;html=1;entryX=0;entryY=0.5;entryDx=0;entryDy=0;" edge="1" parent="WIyWlLk6GJQsqaUBKTNV-1" source="63EsvMtUPEDaX-puUmTT-52" target="63EsvMtUPEDaX-puUmTT-57">
          <mxGeometry relative="1" as="geometry">
            <Array as="points">
              <mxPoint x="200" y="2800" />
              <mxPoint x="200" y="3110" />
            </Array>
          </mxGeometry>
        </mxCell>
        <mxCell id="63EsvMtUPEDaX-puUmTT-52" value="t &amp;lt; t_min" style="rhombus;whiteSpace=wrap;html=1;" vertex="1" parent="WIyWlLk6GJQsqaUBKTNV-1">
          <mxGeometry x="360" y="2760" width="80" height="80" as="geometry" />
        </mxCell>
        <mxCell id="63EsvMtUPEDaX-puUmTT-53" value="" style="edgeStyle=orthogonalEdgeStyle;rounded=0;orthogonalLoop=1;jettySize=auto;html=1;" edge="1" parent="WIyWlLk6GJQsqaUBKTNV-1" source="63EsvMtUPEDaX-puUmTT-54" target="63EsvMtUPEDaX-puUmTT-56">
          <mxGeometry relative="1" as="geometry" />
        </mxCell>
        <mxCell id="63EsvMtUPEDaX-puUmTT-54" value="t_min = t" style="whiteSpace=wrap;html=1;" vertex="1" parent="WIyWlLk6GJQsqaUBKTNV-1">
          <mxGeometry x="620" y="2850" width="120" height="60" as="geometry" />
        </mxCell>
        <mxCell id="63EsvMtUPEDaX-puUmTT-55" style="edgeStyle=orthogonalEdgeStyle;rounded=0;orthogonalLoop=1;jettySize=auto;html=1;exitX=0.5;exitY=1;exitDx=0;exitDy=0;entryX=1;entryY=0.5;entryDx=0;entryDy=0;" edge="1" parent="WIyWlLk6GJQsqaUBKTNV-1" source="63EsvMtUPEDaX-puUmTT-56" target="63EsvMtUPEDaX-puUmTT-57">
          <mxGeometry relative="1" as="geometry" />
        </mxCell>
        <mxCell id="63EsvMtUPEDaX-puUmTT-56" value="g_min = i" style="whiteSpace=wrap;html=1;" vertex="1" parent="WIyWlLk6GJQsqaUBKTNV-1">
          <mxGeometry x="620" y="3010" width="120" height="60" as="geometry" />
        </mxCell>
        <mxCell id="63EsvMtUPEDaX-puUmTT-60" value="" style="edgeStyle=orthogonalEdgeStyle;rounded=0;orthogonalLoop=1;jettySize=auto;html=1;" edge="1" parent="WIyWlLk6GJQsqaUBKTNV-1" source="63EsvMtUPEDaX-puUmTT-57" target="63EsvMtUPEDaX-puUmTT-59">
          <mxGeometry relative="1" as="geometry" />
        </mxCell>
        <mxCell id="63EsvMtUPEDaX-puUmTT-57" value="" style="ellipse;whiteSpace=wrap;html=1;aspect=fixed;" vertex="1" parent="WIyWlLk6GJQsqaUBKTNV-1">
          <mxGeometry x="380" y="3090" width="40" height="40" as="geometry" />
        </mxCell>
        <mxCell id="63EsvMtUPEDaX-puUmTT-61" style="edgeStyle=orthogonalEdgeStyle;rounded=0;orthogonalLoop=1;jettySize=auto;html=1;exitX=0.5;exitY=1;exitDx=0;exitDy=0;entryX=0;entryY=0.5;entryDx=0;entryDy=0;" edge="1" parent="WIyWlLk6GJQsqaUBKTNV-1" source="63EsvMtUPEDaX-puUmTT-59" target="63EsvMtUPEDaX-puUmTT-9">
          <mxGeometry relative="1" as="geometry">
            <mxPoint x="-30" y="2550" as="targetPoint" />
            <Array as="points">
              <mxPoint x="400" y="3280" />
              <mxPoint x="-480" y="3280" />
              <mxPoint x="-480" y="830" />
            </Array>
          </mxGeometry>
        </mxCell>
        <mxCell id="63EsvMtUPEDaX-puUmTT-59" value="i += 1" style="whiteSpace=wrap;html=1;" vertex="1" parent="WIyWlLk6GJQsqaUBKTNV-1">
          <mxGeometry x="340" y="3200" width="120" height="60" as="geometry" />
        </mxCell>
        <mxCell id="63EsvMtUPEDaX-puUmTT-65" value="" style="edgeStyle=orthogonalEdgeStyle;rounded=0;orthogonalLoop=1;jettySize=auto;html=1;" edge="1" parent="WIyWlLk6GJQsqaUBKTNV-1" source="63EsvMtUPEDaX-puUmTT-63" target="63EsvMtUPEDaX-puUmTT-64">
          <mxGeometry relative="1" as="geometry" />
        </mxCell>
        <mxCell id="63EsvMtUPEDaX-puUmTT-63" value="Write Media/7" style="shape=parallelogram;perimeter=parallelogramPerimeter;whiteSpace=wrap;html=1;fixedSize=1;" vertex="1" parent="WIyWlLk6GJQsqaUBKTNV-1">
          <mxGeometry x="414" y="3440" width="120" height="60" as="geometry" />
        </mxCell>
        <mxCell id="63EsvMtUPEDaX-puUmTT-67" style="edgeStyle=orthogonalEdgeStyle;rounded=0;orthogonalLoop=1;jettySize=auto;html=1;exitX=1;exitY=0.5;exitDx=0;exitDy=0;entryX=0.5;entryY=0;entryDx=0;entryDy=0;" edge="1" parent="WIyWlLk6GJQsqaUBKTNV-1" source="63EsvMtUPEDaX-puUmTT-64" target="63EsvMtUPEDaX-puUmTT-66">
          <mxGeometry relative="1" as="geometry" />
        </mxCell>
        <mxCell id="63EsvMtUPEDaX-puUmTT-70" style="edgeStyle=orthogonalEdgeStyle;rounded=0;orthogonalLoop=1;jettySize=auto;html=1;exitX=0;exitY=0.5;exitDx=0;exitDy=0;entryX=0;entryY=0.5;entryDx=0;entryDy=0;" edge="1" parent="WIyWlLk6GJQsqaUBKTNV-1" source="63EsvMtUPEDaX-puUmTT-64" target="63EsvMtUPEDaX-puUmTT-68">
          <mxGeometry relative="1" as="geometry">
            <Array as="points">
              <mxPoint x="240" y="3610" />
              <mxPoint x="240" y="3830" />
            </Array>
          </mxGeometry>
        </mxCell>
        <mxCell id="63EsvMtUPEDaX-puUmTT-64" value="temp_norma == 7" style="rhombus;whiteSpace=wrap;html=1;" vertex="1" parent="WIyWlLk6GJQsqaUBKTNV-1">
          <mxGeometry x="381" y="3570" width="186" height="80" as="geometry" />
        </mxCell>
        <mxCell id="63EsvMtUPEDaX-puUmTT-69" style="edgeStyle=orthogonalEdgeStyle;rounded=0;orthogonalLoop=1;jettySize=auto;html=1;exitX=0.5;exitY=1;exitDx=0;exitDy=0;entryX=1;entryY=0.5;entryDx=0;entryDy=0;" edge="1" parent="WIyWlLk6GJQsqaUBKTNV-1" source="63EsvMtUPEDaX-puUmTT-66" target="63EsvMtUPEDaX-puUmTT-68">
          <mxGeometry relative="1" as="geometry" />
        </mxCell>
        <mxCell id="63EsvMtUPEDaX-puUmTT-66" value="Write &quot;TNN&quot;" style="shape=parallelogram;perimeter=parallelogramPerimeter;whiteSpace=wrap;html=1;fixedSize=1;" vertex="1" parent="WIyWlLk6GJQsqaUBKTNV-1">
          <mxGeometry x="650" y="3680" width="120" height="60" as="geometry" />
        </mxCell>
        <mxCell id="63EsvMtUPEDaX-puUmTT-72" value="" style="edgeStyle=orthogonalEdgeStyle;rounded=0;orthogonalLoop=1;jettySize=auto;html=1;" edge="1" parent="WIyWlLk6GJQsqaUBKTNV-1" source="63EsvMtUPEDaX-puUmTT-68" target="63EsvMtUPEDaX-puUmTT-71">
          <mxGeometry relative="1" as="geometry" />
        </mxCell>
        <mxCell id="63EsvMtUPEDaX-puUmTT-68" value="" style="ellipse;whiteSpace=wrap;html=1;aspect=fixed;" vertex="1" parent="WIyWlLk6GJQsqaUBKTNV-1">
          <mxGeometry x="454" y="3810" width="40" height="40" as="geometry" />
        </mxCell>
        <mxCell id="63EsvMtUPEDaX-puUmTT-74" value="" style="edgeStyle=orthogonalEdgeStyle;rounded=0;orthogonalLoop=1;jettySize=auto;html=1;" edge="1" parent="WIyWlLk6GJQsqaUBKTNV-1" source="63EsvMtUPEDaX-puUmTT-71" target="63EsvMtUPEDaX-puUmTT-73">
          <mxGeometry relative="1" as="geometry" />
        </mxCell>
        <mxCell id="63EsvMtUPEDaX-puUmTT-71" value="Write g_max, g_min" style="shape=parallelogram;perimeter=parallelogramPerimeter;whiteSpace=wrap;html=1;fixedSize=1;" vertex="1" parent="WIyWlLk6GJQsqaUBKTNV-1">
          <mxGeometry x="391" y="3920" width="166" height="60" as="geometry" />
        </mxCell>
        <mxCell id="63EsvMtUPEDaX-puUmTT-73" value="END" style="ellipse;whiteSpace=wrap;html=1;" vertex="1" parent="WIyWlLk6GJQsqaUBKTNV-1">
          <mxGeometry x="434" y="4050" width="80" height="80" as="geometry" />
        </mxCell>
      </root>
    </mxGraphModel>
  </diagram>
</mxfile>
